<svg width="35" height="40" viewBox="0 0 35 40" fill="none" xmlns="http://www.w3.org/2000/svg">
<path fill-rule="evenodd" clip-rule="evenodd" d="M13.8589 35.5461C14.839 36.6195 16.0973 37.2093 17.403 37.2093H17.4048C18.7161 37.2093 19.9801 36.6195 20.9622 35.5442C21.4882 34.973 22.3851 34.9265 22.966 35.4419C23.5488 35.9572 23.5961 36.8409 23.072 37.4121C21.5431 39.0809 19.5317 40 17.4048 40H17.4011C15.2799 39.9981 13.2723 39.0791 11.7491 37.4102C11.2249 36.8391 11.2722 35.9553 11.855 35.4419C12.4378 34.9247 13.3347 34.9712 13.8589 35.5461ZM17.4972 0C25.908 0 31.5581 6.44093 31.5581 12.4558C31.5581 15.5498 32.3585 16.8614 33.2081 18.253C34.0482 19.626 35 21.1851 35 24.1321C34.3396 31.6614 26.3451 32.2753 17.4972 32.2753C8.64928 32.2753 0.652858 31.6614 2.50457e-05 24.2512C-0.00562627 21.1851 0.946148 19.626 1.78628 18.253L2.08287 17.7621C2.81313 16.5281 3.43628 15.1858 3.43628 12.4558C3.43628 6.44093 9.08637 0 17.4972 0ZM17.4972 2.7907C10.884 2.7907 6.27457 7.88465 6.27457 12.4558C6.27457 16.3237 5.18277 18.1116 4.21775 19.6893C3.44385 20.9563 2.83267 21.9572 2.83267 24.1321C3.14866 27.6409 5.50445 29.4847 17.4972 29.4847C29.4237 29.4847 31.8533 27.5591 32.1674 24.0112C32.1617 21.9572 31.5505 20.9563 30.7766 19.6893C29.8116 18.1116 28.7198 16.3237 28.7198 12.4558C28.7198 7.88465 24.1104 2.7907 17.4972 2.7907Z" fill="white"/>
</svg>
