<svg width="20" height="23" viewBox="0 0 20 23" fill="none" xmlns="http://www.w3.org/2000/svg">
<path fill-rule="evenodd" clip-rule="evenodd" d="M7.91948 20.4522C8.47957 21.0663 9.1986 21.4036 9.94467 21.4036H9.94575C10.6951 21.4036 11.4173 21.0663 11.9785 20.4511C12.2791 20.1244 12.7916 20.0978 13.1236 20.3926C13.4566 20.6874 13.4836 21.1929 13.1841 21.5196C12.3105 22.4743 11.1611 23 9.94575 23H9.94358C8.7315 22.9989 7.58429 22.4732 6.71388 21.5186C6.41437 21.1918 6.4414 20.6863 6.77443 20.3926C7.10745 20.0967 7.61997 20.1233 7.91948 20.4522ZM9.99851 0.118652C14.8047 0.118652 18.0333 3.80308 18.0333 7.2438C18.0333 9.01365 18.4907 9.76394 18.9762 10.56C19.4562 11.3454 20.0001 12.2373 20.0001 13.923C19.6228 18.23 15.0545 18.5812 9.99851 18.5812C4.94257 18.5812 0.373184 18.23 0.000136382 13.9911C-0.00309294 12.2373 0.540778 11.3454 1.02086 10.56L1.19034 10.2792C1.60762 9.57329 1.96371 8.80543 1.96371 7.2438C1.96371 3.80308 5.19234 0.118652 9.99851 0.118652ZM9.99851 1.71503C6.21953 1.71503 3.58559 4.62894 3.58559 7.2438C3.58559 9.45637 2.96171 10.4791 2.41027 11.3816C1.96803 12.1064 1.61879 12.6789 1.61879 13.923C1.79936 15.9302 3.14552 16.9849 9.99851 16.9849C16.8137 16.9849 18.202 15.8834 18.3815 13.8539C18.3782 12.6789 18.029 12.1064 17.5868 11.3816C17.0353 10.4791 16.4114 9.45637 16.4114 7.2438C16.4114 4.62894 13.7775 1.71503 9.99851 1.71503Z" fill="#006175"/>
</svg>
