<svg width="40" height="40" viewBox="0 0 40 40" fill="none" xmlns="http://www.w3.org/2000/svg">
<path d="M27.511 0C35.1803 0 40 4.78452 40 12.5066V17.6429C40 18.0472 39.8382 18.4347 39.5507 18.7189C39.2632 19.0031 38.8739 19.1604 38.4697 19.1557V19.1205C37.6245 19.1205 36.9393 18.4353 36.9393 17.5901V12.5066C36.9393 6.40281 33.5972 3.06069 27.511 3.06069H12.5066C6.4204 3.06069 3.06069 6.4204 3.06069 12.5066V27.511C3.06069 33.5796 6.4204 36.9393 12.5066 36.9393H27.511C33.5972 36.9393 36.9393 33.5796 36.9393 27.511C36.9393 26.6658 37.6245 25.9807 38.4697 25.9807C39.3148 25.9807 40 26.6658 40 27.511C40 35.2155 35.2155 40 27.511 40H12.5066C4.78452 40 0 35.2155 0 27.511V12.5066C0 4.78452 4.78452 0 12.5066 0H27.511ZM20.1407 23.2894C20.5483 23.2984 20.9349 23.4715 21.2131 23.7696C21.4913 24.0676 21.6374 24.4653 21.6183 24.8725V26.8074L21.591 27.0476C21.5298 27.3626 21.3706 27.6526 21.133 27.8743C20.8361 28.1515 20.4411 28.2992 20.0352 28.285C19.1941 28.2469 18.5376 27.5436 18.5576 26.7018V24.7669C18.5714 24.361 18.7459 23.9771 19.0429 23.7C19.3398 23.4228 19.7348 23.2751 20.1407 23.2894ZM20.0704 11.6974C20.2407 11.6974 20.4079 11.7261 20.5658 11.7807C21.1955 11.9704 21.6535 12.5544 21.6535 13.2454L21.652 18.028L26.8602 18.0299C27.0356 18.0279 27.2081 18.0563 27.3708 18.1124C27.6079 18.1847 27.8276 18.3158 28.0065 18.4968C28.2907 18.7843 28.448 19.1736 28.4434 19.5778C28.4434 20.4095 27.7795 21.0891 26.9481 21.1082H13.3157C13.1725 21.1049 13.0342 21.0823 12.9033 21.0428C12.2343 20.8762 11.7406 20.2762 11.7325 19.5602C11.7279 19.156 11.8852 18.7667 12.1694 18.4792C12.4536 18.1917 12.8411 18.0299 13.2454 18.0299H18.5224V13.2278C18.5413 12.3837 19.2261 11.7067 20.0704 11.6974Z" fill="white"/>
</svg>
