<svg width="21" height="20" viewBox="0 0 21 20" fill="none" xmlns="http://www.w3.org/2000/svg">
<path d="M20.3413 18.6065L16.9552 15.2458L16.8759 15.1233C16.7283 14.9742 16.5265 14.8902 16.3159 14.8902C16.1053 14.8902 15.9035 14.9742 15.756 15.1233C12.8783 17.8033 8.44416 17.949 5.39423 15.4637C2.3443 12.9784 1.62501 8.63337 3.71338 5.31017C5.80175 1.98697 10.0498 0.716847 13.6401 2.34214C17.2305 3.96743 19.0491 7.98379 17.8899 11.7276C17.8064 11.9981 17.8747 12.2922 18.0689 12.4992C18.2632 12.7062 18.5539 12.7946 18.8317 12.7311C19.1094 12.6676 19.3319 12.4619 19.4154 12.1914C20.8012 7.74864 18.7082 2.96755 14.4905 0.941058C10.2728 -1.08544 5.19607 0.250824 2.54446 4.08542C-0.107148 7.92001 0.462135 13.1021 3.88404 16.2795C7.30594 19.4569 12.5535 19.6759 16.2321 16.7949L19.2302 19.7705C19.5399 20.0765 20.0405 20.0765 20.3501 19.7705C20.6594 19.4602 20.6594 18.9606 20.3501 18.6503L20.3413 18.6065Z" fill="#006175"/>
</svg>
