<svg width="14" height="14" viewBox="0 0 14 14" fill="none" xmlns="http://www.w3.org/2000/svg">
<path d="M6.96092 0C10.6133 0 13.3783 3.03074 13.3783 6.49816C13.3783 10.5196 10.1375 13.0159 6.94806 13.0159C5.8935 13.0159 4.7232 12.7291 3.78438 12.1686C3.45644 11.9665 3.17994 11.8166 2.82628 11.9339L1.52737 12.325C1.19943 12.4293 0.903636 12.1686 1.00009 11.8166L1.43092 10.3566C1.50165 10.1546 1.48879 9.93951 1.3859 9.77005C0.832904 8.74025 0.517822 7.61269 0.517822 6.51771C0.517822 3.08939 3.22495 0 6.96092 0ZM9.89954 5.68996C9.44299 5.68996 9.07647 6.06147 9.07647 6.52423C9.07647 6.98047 9.44299 7.3585 9.89954 7.3585C10.3561 7.3585 10.7226 6.98047 10.7226 6.52423C10.7226 6.06147 10.3561 5.68996 9.89954 5.68996ZM6.9352 5.68996C6.48508 5.68344 6.11213 6.06147 6.11213 6.51771C6.11213 6.98047 6.47865 7.35198 6.9352 7.3585C7.39174 7.3585 7.75827 6.98047 7.75827 6.52423C7.75827 6.06147 7.39174 5.68996 6.9352 5.68996ZM3.97086 5.68996C3.51431 5.68996 3.14779 6.06147 3.14779 6.52423C3.14779 6.98047 3.52074 7.3585 3.97086 7.3585C4.42741 7.35198 4.79393 6.98047 4.79393 6.52423C4.79393 6.06147 4.42741 5.68996 3.97086 5.68996Z" fill="black"/>
</svg>
