<svg width="40" height="40" viewBox="0 0 40 40" fill="none" xmlns="http://www.w3.org/2000/svg">
<path d="M20.0135 0C23.249 0 26.4721 0.798132 29.336 2.30806C39.0864 7.45276 42.8362 19.571 37.695 29.3248C34.1883 35.9759 27.2841 40 19.9906 40C18.5657 40 17.1268 39.8467 15.6948 39.5296C14.8882 39.3499 14.3792 38.55 14.557 37.743C14.7349 36.9361 15.5328 36.4304 16.3447 36.6049C23.7932 38.261 31.483 34.6862 35.0461 27.9276C39.4176 19.6362 36.2296 9.33092 27.9393 4.95793C25.5052 3.67352 22.7646 2.9952 20.0117 2.9952C10.6206 2.9952 2.99421 10.6224 2.99421 19.9974C2.99068 22.7283 3.65645 25.4469 4.91929 27.8624L5.30325 28.613C5.77351 29.4939 5.87743 30.588 5.57273 31.5782C5.15178 32.6882 4.80129 33.7682 4.51243 34.843C5.63613 34.5047 7.00817 34.0061 7.99978 33.6449L8.40664 33.4987C9.17632 33.2115 10.0411 33.6185 10.3229 34.3972C10.6047 35.1742 10.2014 36.034 9.42466 36.3141L9.02308 36.4604C7.54008 36.9978 5.51108 37.736 4.1408 38.0425C4.02456 38.0672 3.89951 38.0831 3.78502 38.0795C2.86563 38.0795 2.30555 37.7078 1.99732 37.3942C1.52353 36.9132 1.29809 36.2384 1.32451 35.3892C1.32803 35.2923 1.34036 35.1918 1.36326 35.0949C1.71904 33.5797 2.18226 32.068 2.74234 30.6039C2.78285 30.4612 2.7582 30.2022 2.64371 29.9855L2.25799 29.2367C0.780273 26.4071 -0.003499 23.2057 1.17427e-05 19.9956C1.17427e-05 8.96974 8.96849 0 19.9906 0H20.0135ZM19.9913 17.619C21.3035 17.619 22.369 18.6867 22.369 19.9975C22.369 21.3084 21.3035 22.3761 19.9913 22.3761C18.6792 22.3761 17.6136 21.3084 17.6136 19.9975C17.6136 18.6867 18.6792 17.619 19.9913 17.619ZM28.7977 17.619C30.1099 17.619 31.1755 18.6867 31.1755 19.9975C31.1755 21.3084 30.1099 22.3761 28.7977 22.3761C27.4856 22.3761 26.42 21.3084 26.42 19.9975C26.42 18.6867 27.4856 17.619 28.7977 17.619ZM11.1847 17.6197C12.4969 17.6197 13.5624 18.6856 13.5624 19.9982C13.5624 21.3091 12.4969 22.375 11.1847 22.375C9.87255 22.375 8.80697 21.3091 8.80697 19.9982C8.80697 18.6856 9.87255 17.6197 11.1847 17.6197Z" fill="white"/>
</svg>
