<svg width="40" height="40" viewBox="0 0 40 40" fill="none" xmlns="http://www.w3.org/2000/svg">
<path d="M13.968 37.5467V31.4312C13.968 29.8701 15.3098 28.6046 16.9651 28.6046H23.016C23.8109 28.6046 24.5733 28.9024 25.1353 29.4325C25.6974 29.9626 26.0132 30.6815 26.0132 31.4312V37.5467C26.0082 38.1957 26.278 38.8197 26.7629 39.2803C27.2477 39.7409 27.9075 40 28.5957 40H32.7238C34.6519 40.0047 36.5026 39.2857 37.8677 38.0016C39.2328 36.7175 40 34.9739 40 33.1556V15.7337C40 14.2649 39.3096 12.8717 38.115 11.9293L24.0716 1.35174C21.6288 -0.502876 18.1287 -0.442996 15.7587 1.49396L2.03582 11.9293C0.784717 12.8439 0.0369522 14.2413 0 15.7337V33.1379C0 36.9277 3.25765 40 7.27615 40H11.3101C12.7394 40 13.901 38.9124 13.9114 37.5644L13.968 37.5467Z" fill="white"/>
</svg>
