<svg width="18" height="19" viewBox="0 0 18 19" fill="none" xmlns="http://www.w3.org/2000/svg">
<path d="M8.90625 7.65305C8.44026 7.65305 8.0625 7.2533 8.0625 6.76019C8.0625 6.26708 8.44026 5.86733 8.90625 5.86733C9.37224 5.86733 9.75 6.26708 9.75 6.76019C9.75 7.2533 9.37224 7.65305 8.90625 7.65305Z" fill="white"/>
<path d="M14.25 11.2245H7.5L9.1875 8.84352L9.75 9.43876L11.4375 7.05781L14.25 11.2245Z" fill="white"/>
<path fill-rule="evenodd" clip-rule="evenodd" d="M15 14.2857H6C5.17157 14.2857 4.5 13.6004 4.5 12.7551V3.57141C4.5 2.72608 5.17157 2.0408 6 2.0408H15C15.8284 2.0408 16.5 2.72608 16.5 3.57141V12.7551C16.5 13.6004 15.8284 14.2857 15 14.2857ZM6 3.57141V12.7551H15V3.57141H6Z" fill="white"/>
<path d="M3 6.63264H1.5V15.8163C1.5 16.6616 2.17157 17.3469 3 17.3469H12V15.8163H3V6.63264Z" fill="white"/>
</svg>
