<svg width="24" height="24" viewBox="0 0 24 24" fill="none" xmlns="http://www.w3.org/2000/svg">
<path d="M12 23.2502C11.8377 23.2502 11.6798 23.1976 11.55 23.1002L8.55 20.8502C8.45685 20.7804 8.38125 20.6898 8.32918 20.5856C8.27711 20.4815 8.25 20.3667 8.25 20.2502V13.1027C7.04592 12.2982 6.13248 11.1278 5.64461 9.76433C5.15673 8.40086 5.12028 6.91664 5.54064 5.53087C5.96099 4.1451 6.81587 2.93125 7.97901 2.0686C9.14215 1.20595 10.5519 0.740234 12 0.740234C13.4481 0.740234 14.8579 1.20595 16.021 2.0686C17.1841 2.93125 18.039 4.1451 18.4594 5.53087C18.8797 6.91664 18.8433 8.40086 18.3554 9.76433C17.8675 11.1278 16.9541 12.2982 15.75 13.1027V14.2502C15.7506 14.3489 15.7317 14.4468 15.6943 14.5382C15.657 14.6295 15.602 14.7126 15.5325 14.7827L14.5575 15.7502L15.5325 16.7177C15.6028 16.7874 15.6586 16.8704 15.6967 16.9618C15.7347 17.0532 15.7543 17.1512 15.7543 17.2502C15.7543 17.3492 15.7347 17.4473 15.6967 17.5387C15.6586 17.63 15.6028 17.713 15.5325 17.7827L14.5575 18.7502L15.5325 19.7177C15.6086 19.7939 15.6675 19.8856 15.705 19.9865C15.7425 20.0875 15.7579 20.1953 15.75 20.3027C15.7423 20.4102 15.7114 20.5147 15.6597 20.6092C15.6079 20.7036 15.5364 20.7859 15.45 20.8502L12.45 23.1002C12.3202 23.1976 12.1623 23.2502 12 23.2502ZM9.75 19.8752L12 21.5627L13.86 20.1677L12.9675 19.2827C12.8972 19.213 12.8414 19.13 12.8033 19.0387C12.7653 18.9473 12.7457 18.8492 12.7457 18.7502C12.7457 18.6512 12.7653 18.5532 12.8033 18.4618C12.8414 18.3704 12.8972 18.2874 12.9675 18.2177L13.9425 17.2502L12.9675 16.2827C12.8972 16.213 12.8414 16.13 12.8033 16.0387C12.7653 15.9473 12.7457 15.8492 12.7457 15.7502C12.7457 15.6512 12.7653 15.5532 12.8033 15.4618C12.8414 15.3704 12.8972 15.2874 12.9675 15.2177L14.25 13.9427V12.6902C14.2508 12.5593 14.2858 12.4309 14.3516 12.3178C14.4174 12.2046 14.5116 12.1107 14.625 12.0452C15.6259 11.4674 16.4081 10.5754 16.8504 9.50768C17.2926 8.43994 17.3702 7.25611 17.0711 6.13979C16.772 5.02346 16.1129 4.03703 15.196 3.33348C14.2791 2.62993 13.1557 2.24859 12 2.24859C10.8443 2.24859 9.72089 2.62993 8.804 3.33348C7.88712 4.03703 7.22801 5.02346 6.92889 6.13979C6.62977 7.25611 6.70736 8.43994 7.14963 9.50768C7.5919 10.5754 8.37413 11.4674 9.375 12.0452C9.48835 12.1107 9.58261 12.2046 9.64839 12.3178C9.71418 12.4309 9.74921 12.5593 9.75 12.6902V19.8752Z" fill="#101820"/>
<path d="M12 6.75C12.4142 6.75 12.75 6.41421 12.75 6C12.75 5.58579 12.4142 5.25 12 5.25C11.5858 5.25 11.25 5.58579 11.25 6C11.25 6.41421 11.5858 6.75 12 6.75Z" fill="#101820"/>
<path d="M12 7.5C11.7033 7.5 11.4133 7.41203 11.1666 7.24721C10.92 7.08238 10.7277 6.84811 10.6142 6.57403C10.5006 6.29994 10.4709 5.99834 10.5288 5.70737C10.5867 5.41639 10.7296 5.14912 10.9393 4.93934C11.1491 4.72956 11.4164 4.5867 11.7074 4.52882C11.9983 4.47094 12.2999 4.50065 12.574 4.61418C12.8481 4.72771 13.0824 4.91997 13.2472 5.16665C13.412 5.41332 13.5 5.70333 13.5 6C13.5 6.39783 13.342 6.77936 13.0607 7.06066C12.7794 7.34197 12.3978 7.5 12 7.5Z" fill="#101820"/>
</svg>
