<svg width="20" height="20" viewBox="0 0 20 20" fill="none" xmlns="http://www.w3.org/2000/svg">
<path fill-rule="evenodd" clip-rule="evenodd" d="M10.648 0C11.3905 0 12.1124 0.28377 12.6299 0.77699C13.1463 1.2731 13.4315 1.95357 13.4097 2.64369C13.4118 2.79909 13.4668 2.97862 13.5663 3.13595C13.7312 3.39655 13.9915 3.57994 14.3006 3.65523C14.6096 3.72665 14.9332 3.68805 15.208 3.53651C16.5355 2.83094 18.2249 3.2537 18.983 4.47951L19.6291 5.52097C19.6457 5.54896 19.6602 5.57599 19.6726 5.60398C20.3592 6.81145 19.9008 8.33164 18.6252 9.02563C18.4396 9.12504 18.2892 9.26403 18.1855 9.43198C18.0247 9.69162 17.9801 10.0005 18.061 10.2843C18.144 10.5738 18.3421 10.8141 18.6211 10.9628C19.2506 11.2996 19.7204 11.8672 19.9081 12.5226C20.0958 13.177 19.9931 13.8874 19.627 14.4732L18.9384 15.5408C18.1803 16.7531 16.4909 17.1729 15.1769 16.4664C15.0017 16.3728 14.7994 16.3216 14.5982 16.3168H14.592C14.2923 16.3168 13.9843 16.4355 13.7603 16.643C13.5332 16.8544 13.4087 17.1362 13.4108 17.4355C13.4035 18.8533 12.1642 20 10.648 20H9.34855C7.82508 20 6.58577 18.8475 6.58577 17.4297C6.5837 17.255 6.52977 17.0735 6.42917 16.9162C6.26635 16.6517 6.00293 16.4625 5.69907 16.3872C5.39728 16.312 5.06645 16.3535 4.79474 16.5002C4.14345 16.838 3.37705 16.92 2.67599 16.7366C1.97596 16.5523 1.37135 16.1044 1.01667 15.5108L0.368494 14.4713C-0.389609 13.2474 0.0615191 11.679 1.37446 10.9724C1.74677 10.7726 1.97804 10.4001 1.97804 10.0005C1.97804 9.60089 1.74677 9.22735 1.37446 9.02756C0.0604821 8.31717 -0.389609 6.74485 0.367457 5.52097L1.0706 4.4467C1.81833 3.23633 3.50876 2.80971 4.82689 3.51431C5.0063 3.61373 5.20127 3.66392 5.39935 3.66585C6.04545 3.66585 6.58577 3.16973 6.59614 2.55972C6.59199 1.88697 6.87719 1.24125 7.39676 0.753825C7.91841 0.267362 8.61118 0 9.34855 0H10.648ZM10.648 1.44781H9.34855C9.02705 1.44781 8.7263 1.5646 8.49918 1.77501C8.2731 1.98639 8.14968 2.26726 8.15176 2.56648C8.12998 3.97761 6.89067 5.11365 5.39002 5.11365C4.90882 5.10883 4.44524 4.98818 4.04286 4.76425C3.47765 4.46504 2.73925 4.64939 2.40842 5.18508L1.70632 6.25935C1.38483 6.77863 1.58187 7.46489 2.15434 7.77472C3.00371 8.23223 3.53365 9.08547 3.53365 10.0005C3.53365 10.9155 3.00371 11.7678 2.15227 12.2262C1.58291 12.5332 1.38587 13.2156 1.71566 13.7464L2.37005 14.7966C2.53184 15.0678 2.79629 15.2637 3.10223 15.3439C3.40713 15.423 3.74314 15.3892 4.02315 15.2444C4.43487 15.0195 4.914 14.9028 5.39521 14.9028C5.6327 14.9028 5.87019 14.9307 6.10249 14.9887C6.80356 15.1643 7.41232 15.6006 7.77322 16.1865C8.0076 16.5542 8.13724 16.9837 8.14139 17.4219C8.14139 18.0493 8.68274 18.5522 9.34855 18.5522H10.648C11.3107 18.5522 11.852 18.0522 11.8552 17.4355C11.851 16.754 12.1372 16.1064 12.661 15.6189C13.1774 15.1383 13.8992 14.8497 14.621 14.869C15.094 14.8796 15.5492 14.9983 15.9506 15.2107C16.5282 15.5186 17.2656 15.3352 17.5995 14.8043L18.2881 13.7358C18.4416 13.4897 18.4862 13.1808 18.4043 12.8961C18.3234 12.6114 18.1201 12.3643 17.8464 12.2185C17.2054 11.8749 16.7481 11.3209 16.5583 10.6568C16.3706 10.0053 16.4733 9.29395 16.8394 8.70807C17.0779 8.32199 17.4274 7.99672 17.8464 7.77279C18.4085 7.46682 18.6055 6.78249 18.2788 6.2497C18.2653 6.22846 18.2529 6.20626 18.2425 6.1831L17.6348 5.20245C17.304 4.66676 16.5676 4.48241 15.99 4.78838C15.3657 5.13199 14.6231 5.23044 13.9096 5.05574C13.1971 4.88393 12.5998 4.46407 12.2275 3.87143C11.9889 3.5008 11.8593 3.06935 11.8552 2.63018C11.8645 2.30008 11.74 2.00376 11.514 1.78659C11.2889 1.57039 10.9726 1.44781 10.648 1.44781ZM10.0028 6.73143C11.9391 6.73143 13.5144 8.19854 13.5144 10.0006C13.5144 11.8026 11.9391 13.2678 10.0028 13.2678C8.06661 13.2678 6.49129 11.8026 6.49129 10.0006C6.49129 8.19854 8.06661 6.73143 10.0028 6.73143ZM10.0028 8.17924C8.92428 8.17924 8.04691 8.99677 8.04691 10.0006C8.04691 11.0044 8.92428 11.82 10.0028 11.82C11.0814 11.82 11.9588 11.0044 11.9588 10.0006C11.9588 8.99677 11.0814 8.17924 10.0028 8.17924Z" fill="black"/>
</svg>
